<svg width="25" height="33" fill="none" xmlns="http://www.w3.org/2000/svg"><path d="M24.002 10.614c0-.205-.201-.41-.483-.492l-3.377-1.267c-.563-.246-1.206.04-1.206.45V23.72c0 .204.2.45.401.532l3.458 1.268c.523.204 1.207-.082 1.207-.533V10.613zm-6.313-5.037c0-.205-.2-.41-.482-.492L13.83 3.817c-.563-.245-1.207.041-1.207.451v8.762c0 .205.201.45.402.533l3.458 1.268c.523.205 1.206-.082 1.206-.532V5.577zm0 15.766c0-.204-.2-.41-.482-.491l-3.377-1.268c-.563-.245-1.207.041-1.207.45v8.763c0 .204.201.45.402.532l3.458 1.268c.523.205 1.206-.082 1.206-.533v-8.72zm-6.312 1.761c0-.204-.2-.41-.483-.491l-3.376-1.268c-.566-.246-1.207.04-1.207.45v9.337c0 .205.201.45.402.533l3.458 1.267c.523.206 1.206-.081 1.206-.531v-9.297zm0-21.254c0-.205-.2-.41-.483-.491L7.518.09C6.952-.155 6.31.13 6.31.54v9.337c0 .205.201.45.402.533l3.458 1.268c.523.204 1.206-.082 1.206-.533V1.85zm-6.311.369c0-.205-.201-.41-.483-.492L1.206.459C.643.214 0 .5 0 .91v29.894c0 .205.2.45.402.532l3.457 1.268c.523.205 1.207-.081 1.207-.532V2.219z" fill="#0E353D"/></svg>