<svg width="144" height="96" fill="none" xmlns="http://www.w3.org/2000/svg"><rect width="144" height="96" rx="4" fill="#E5F8FF"/><path d="M25.003 57a5.003 5.003 0 101.83 9.661l2.236 2.237a8.003 8.003 0 112.828-2.828l-2.236-2.237A5.003 5.003 0 0025.003 57z" fill="#191919" fill-opacity=".3"/><path fill-rule="evenodd" clip-rule="evenodd" d="M12 84h26s-.017-1.297-.559-3c-1.037-3.257-3.997-8-12.441-8s-11.404 4.743-12.441 8c-.542 1.703-.559 3-.559 3zm3.76-3c.138-.317.301-.64.493-.962C17.352 78.2 19.621 76 25 76s7.648 2.199 8.747 4.038c.191.321.355.645.493.962H15.76z" fill="#191919" fill-opacity=".3"/></svg>