<svg width="144" height="96" fill="none" xmlns="http://www.w3.org/2000/svg"><rect width="144" height="96" rx="4" fill="#FFD7D7"/><path d="M25.003 57a5.003 5.003 0 101.83 9.661l2.236 2.237a8.003 8.003 0 112.828-2.828l-2.236-2.237A5.003 5.003 0 0025.003 57z" fill="#191919" fill-opacity=".3"/><path fill-rule="evenodd" clip-rule="evenodd" d="M12 84h26s-.017-1.297-.559-3c-1.037-3.257-3.997-8-12.441-8s-11.404 4.743-12.441 8c-.542 1.703-.559 3-.559 3zm3.76-3c.138-.317.301-.64.493-.962C17.352 78.2 19.621 76 25 76s7.648 2.199 8.747 4.038c.191.321.355.645.493.962H15.76z" fill="#191919" fill-opacity=".3"/><path fill="#0C4DA2" d="M104 8h32v21.333h-32z"/><path fill-rule="evenodd" clip-rule="evenodd" d="M119.982 9.81l.307.921h.993l-.804.568.307.92-.803-.568-.804.569.307-.921-.804-.568h.993l.308-.92zm-4.376.925l.307.92h.994l-.804.569.307.92-.804-.568-.803.569.307-.921-.804-.569h.993l.307-.92zm8.804.103l.307.92h.993l-.803.569.306.92-.803-.569-.804.57.307-.921-.803-.569h.993l.307-.92zm2.583 2.978l.307.92h.993l-.803.57.307.92-.804-.569-.804.568.307-.92-.804-.568h.994l.307-.921zm-13.97-.103l.307.921h.994l-.804.569.307.92-.804-.569-.804.569.308-.92-.804-.569h.993l.307-.92zm-1.054 3.8l.307.92h.993l-.803.57.307.92-.804-.568-.804.568.309-.92-.807-.57h.995l.307-.92zm.949 3.646l.307.921h.993l-.803.569.306.92-.803-.568-.804.569.307-.921-.803-.569h.993l.307-.92zm2.951 2.723l.308.92h.993l-.803.568.308.921-.804-.569-.805.569.307-.92-.804-.57h.994l.306-.92zm4.007 1.232l.307.921h.993l-.803.568.307.92-.803-.568-.804.568.307-.92-.804-.568h.993l.307-.921zm3.901-1.08l.309.92h.994l-.806.57.307.921-.804-.569-.804.57.306-.921-.802-.57h.993l.307-.922zm3.11-2.774l.307.921h.994l-.804.569.307.92-.804-.569-.803.57.306-.921-.803-.569h.993l.307-.92zm1.107-3.595l.306.92h.994l-.803.573.307.92-.804-.568-.803.569.307-.92-.804-.57h.993l.307-.924z" fill="#FFF200"/></svg>