<svg width="144" height="96" fill="none" xmlns="http://www.w3.org/2000/svg"><rect width="144" height="96" rx="4" fill="#FFEED1"/><path fill-rule="evenodd" clip-rule="evenodd" d="M81.99 80.421a.917.917 0 00-1.186.61 12.574 12.574 0 01-1.297 1.598 4.679 4.679 0 01-1.491 1.226c-.176-.073-.74-.721-.598-6.047.137-5.076 1.537-7.502 1.567-7.56a1.509 1.509 0 00-.167-1.766.855.855 0 00-1.39.207c-.073.124-1.825 3.02-1.986 9.034-.113 4.177-.022 8.287 2.368 8.65.069.01.138.016.207.015.504 0 1.323-.285 2.781-1.843a9.602 9.602 0 001.821-2.526 1.367 1.367 0 00-.628-1.598zm53.026-3.083c-.321.018-1.017-.767-1.688-3.773a41.526 41.526 0 01-.717-4.592L132.434 67l-1.252 1.059c-2.829 2.393-10.736 8.763-13.321 9.493a1.015 1.015 0 01-1.154-.203 5.486 5.486 0 01-.419-3.028l.344-3.076-1.839 1.886c-.773.793-2.925 2.956-3.603 3.448-.927.673-1.363.574-1.539.454a3.178 3.178 0 01-.693-2.055c-.352-3.09-1.1-4.975-2.319-5.764-.995-.647-2.172-.457-3.496.561-2.353 2.127-4.108 4.885-5.08 7.98-.71-1.988-3.358-1.339-7.562-.125-.451.13-.894.258-1.31.372a3.332 3.332 0 01-2.04-.035.966.966 0 00-.534-.473.363.363 0 00-.047-.011 1.57 1.57 0 00.205-1.683.838.838 0 00-.56-.532.793.793 0 00-.738.172l-.38.337a1.265 1.265 0 00-.595-1.041.853.853 0 00-.773.056.935.935 0 00-.438.67 19.33 19.33 0 00-.48 2.297c-.28 1.963-.101 3.31.552 4.119.294.405.746.65 1.23.666a1.44 1.44 0 00.545-.112 3.814 3.814 0 001.702-1.968 4.735 4.735 0 002.731.01c.421-.112.87-.244 1.327-.376 1.598-.463 4.46-1.287 5.423-1.08.038 1.08.131 2.156.28 3.226.44 3.028 1.315 4.689 2.602 4.935l2.24.421-1.358-2.43a7.14 7.14 0 01-.71-4.666c.622-3.314 2.274-6.318 4.699-8.54a1.696 1.696 0 011.752-.481c.588.382 1.043 1.757 1.283 3.872.225 2 .8 3.324 1.711 3.934.911.61 1.994.433 3.268-.494a29.472 29.472 0 002.387-2.192c.091.934.419 1.826.952 2.58.679.878 1.811 1.214 2.827.838 2.78-.785 9.881-6.477 12.734-8.828.125.88.305 1.971.548 3.07.839 3.774 2.038 5.659 3.547 5.596.583-.11.983-.68.908-1.298.05-.62-.385-1.165-.975-1.223z" fill="#000" fill-opacity=".3"/><path d="M25.003 15a5.003 5.003 0 101.83 9.661l2.236 2.237a8.003 8.003 0 112.828-2.828l-2.236-2.237A5.003 5.003 0 0025.003 15z" fill="#191919" fill-opacity=".3"/><path fill-rule="evenodd" clip-rule="evenodd" d="M12 42h26s-.017-1.297-.559-3c-1.037-3.257-3.997-8-12.441-8s-11.404 4.743-12.441 8c-.542 1.703-.559 3-.559 3zm3.76-3a8.43 8.43 0 01.493-.962C17.352 36.2 19.621 34 25 34s7.648 2.199 8.747 4.038c.191.321.355.645.493.962H15.76z" fill="#191919" fill-opacity=".3"/></svg>